<svg width="192" height="192" viewBox="0 0 192 192" fill="none" xmlns="http://www.w3.org/2000/svg">
<g clip-path="url(#clip0_7_5)">
<circle cx="96" cy="96" r="96" transform="rotate(-180 96 96)" fill="#0B2647"/>
<path d="M120.68 132.96C121 132.96 121.32 132.96 121.64 132.96V133.76C120.146 133.973 118.466 134.08 116.6 134.08C114.786 134.08 112.52 133.68 109.8 132.88C107.133 132.08 104.706 130.587 102.52 128.4C98.0397 123.92 95.3197 118.107 94.3597 110.96L89.4797 75.36L72.8397 112.96C71.3464 116.213 70.4397 118.933 70.1197 121.12H69.3197L48.5997 76.08L45.0797 115.84C44.973 116.747 45.2397 117.547 45.8797 118.24C46.573 118.933 47.3197 119.28 48.1197 119.28H49.3997V120H33.8797V119.2H35.1597C36.5997 119.2 37.853 118.773 38.9197 117.92C40.0397 117.013 40.733 115.84 40.9997 114.4L46.0397 70.72C41.3464 61.4933 35.7197 56.88 29.1597 56.88C28.573 56.88 27.9597 56.9067 27.3197 56.96V56.16C28.7597 55.7867 29.933 55.6 30.8397 55.6C31.7464 55.6 32.733 55.6533 33.7997 55.76C34.8664 55.8133 36.1197 56.0533 37.5597 56.48C38.9997 56.9067 40.3597 57.5467 41.6397 58.4C42.9197 59.2 44.0397 60.0533 44.9997 60.96C45.9597 61.8133 46.8664 62.7733 47.7197 63.84C49.1597 65.76 50.3064 67.6 51.1597 69.36L70.4397 111.12L91.9597 62.88H92.6797L100.12 110.24C101.24 117.707 103.64 123.36 107.32 127.2C111.053 131.04 115.506 132.96 120.68 132.96ZM182.973 133.6C180.733 134.187 178.733 134.48 176.973 134.48C175.266 134.48 173.746 134.373 172.413 134.16C171.079 133.947 169.639 133.52 168.093 132.88C166.599 132.293 165.186 131.6 163.853 130.8C162.519 130 161.186 129.013 159.853 127.84C157.399 125.867 155.159 123.733 153.133 121.44C151.159 119.147 147.319 114.853 141.613 108.56C135.906 102.213 132.119 98 130.253 95.92C128.386 93.84 126.946 92.7467 125.933 92.64V91.84C129.026 91.84 131.079 91.7867 132.093 91.68C133.159 91.52 134.279 91.28 135.453 90.96C136.626 90.5867 137.613 90.1067 138.413 89.52C141.559 87.4933 143.133 84.1333 143.133 79.44C143.133 75.5467 142.253 72.4267 140.493 70.08C138.786 67.7333 136.359 66.5333 133.213 66.48H123.293V114.16C123.293 115.493 123.773 116.667 124.733 117.68C125.746 118.693 126.973 119.2 128.413 119.2H129.373L129.453 120H111.933V119.2H112.973C114.306 119.2 115.479 118.72 116.493 117.76C117.506 116.8 118.039 115.627 118.093 114.24V69.84C118.039 68.4533 117.506 67.28 116.493 66.32C115.533 65.3067 114.359 64.8 112.973 64.8H111.933V64H133.533C138.226 64 141.986 65.3333 144.813 68C147.693 70.6133 149.133 74.1067 149.133 78.48C149.133 82.8 147.826 86.5333 145.213 89.68C142.599 92.7733 139.399 94.32 135.613 94.32C135.613 94.32 135.586 94.32 135.533 94.32C137.346 96.24 139.399 98.48 141.693 101.04C150.919 111.227 156.839 117.627 159.453 120.24C162.066 122.853 164.359 124.987 166.333 126.64C168.359 128.347 170.146 129.6 171.693 130.4C174.839 132.107 177.959 132.96 181.053 132.96C181.693 132.96 182.333 132.907 182.973 132.8V133.6Z" fill="white"/>
</g>
<defs>
<clipPath id="clip0_7_5">
<rect width="192" height="192" fill="white"/>
</clipPath>
</defs>
</svg>
