<svg width="512" height="512" viewBox="0 0 512 512" fill="none" xmlns="http://www.w3.org/2000/svg">
<rect width="512" height="512" rx="50" fill="#0B2647"/>
<path d="M298.689 320.68C299.249 320.68 299.809 320.68 300.369 320.68V322.08C297.756 322.453 294.816 322.64 291.549 322.64C288.376 322.64 284.409 321.94 279.649 320.54C274.983 319.14 270.736 316.527 266.909 312.7C259.069 304.86 254.309 294.687 252.629 282.18L244.089 219.88L214.969 285.68C212.356 291.373 210.769 296.133 210.209 299.96H208.809L172.549 221.14L166.389 290.72C166.203 292.307 166.669 293.707 167.789 294.92C169.003 296.133 170.309 296.74 171.709 296.74H173.949V298H146.789V296.6H149.029C151.549 296.6 153.743 295.853 155.609 294.36C157.569 292.773 158.783 290.72 159.249 288.2L168.069 211.76C159.856 195.613 150.009 187.54 138.529 187.54C137.503 187.54 136.429 187.587 135.309 187.68V186.28C137.829 185.627 139.883 185.3 141.469 185.3C143.056 185.3 144.783 185.393 146.649 185.58C148.516 185.673 150.709 186.093 153.229 186.84C155.749 187.587 158.129 188.707 160.369 190.2C162.609 191.6 164.569 193.093 166.249 194.68C167.929 196.173 169.516 197.853 171.009 199.72C173.529 203.08 175.536 206.3 177.029 209.38L210.769 282.46L248.429 198.04H249.689L262.709 280.92C264.669 293.987 268.869 303.88 275.309 310.6C281.843 317.32 289.636 320.68 298.689 320.68ZM407.702 321.8C403.782 322.827 400.282 323.34 397.202 323.34C394.216 323.34 391.556 323.153 389.222 322.78C386.889 322.407 384.369 321.66 381.662 320.54C379.049 319.513 376.576 318.3 374.242 316.9C371.909 315.5 369.576 313.773 367.242 311.72C362.949 308.267 359.029 304.533 355.482 300.52C352.029 296.507 345.309 288.993 335.322 277.98C325.336 266.873 318.709 259.5 315.442 255.86C312.176 252.22 309.656 250.307 307.882 250.12V248.72C313.296 248.72 316.889 248.627 318.662 248.44C320.529 248.16 322.489 247.74 324.542 247.18C326.596 246.527 328.322 245.687 329.722 244.66C335.229 241.113 337.982 235.233 337.982 227.02C337.982 220.207 336.442 214.747 333.362 210.64C330.376 206.533 326.129 204.433 320.622 204.34H303.262V287.78C303.262 290.113 304.102 292.167 305.782 293.94C307.556 295.713 309.702 296.6 312.222 296.6H313.902L314.042 298H283.382V296.6H285.202C287.536 296.6 289.589 295.76 291.362 294.08C293.136 292.4 294.069 290.347 294.162 287.92V210.22C294.069 207.793 293.136 205.74 291.362 204.06C289.682 202.287 287.629 201.4 285.202 201.4H283.382V200H321.182C329.396 200 335.976 202.333 340.922 207C345.962 211.573 348.482 217.687 348.482 225.34C348.482 232.9 346.196 239.433 341.622 244.94C337.049 250.353 331.449 253.06 324.822 253.06C324.822 253.06 324.776 253.06 324.682 253.06C327.856 256.42 331.449 260.34 335.462 264.82C351.609 282.647 361.969 293.847 366.542 298.42C371.116 302.993 375.129 306.727 378.582 309.62C382.129 312.607 385.256 314.8 387.962 316.2C393.469 319.187 398.929 320.68 404.342 320.68C405.462 320.68 406.582 320.587 407.702 320.4V321.8Z" fill="white"/>
</svg>
